<svg xmlns="http://www.w3.org/2000/svg" width="375" viewBox="0 0 375 375" height="375" version="1.0"><defs><clipPath id="a"><path d="M 150 112 L 243 112 L 243 212 L 150 212 Z M 150 112"/></clipPath><clipPath id="b"><path d="M 101.117188 124.507812 L 225.835938 76.886719 L 273.457031 201.605469 L 148.738281 249.226562 Z M 101.117188 124.507812"/></clipPath><clipPath id="c"><path d="M 101.117188 124.507812 L 225.835938 76.886719 L 273.457031 201.605469 L 148.738281 249.226562 Z M 101.117188 124.507812"/></clipPath><clipPath id="d"><path d="M 152 167 L 195 167 L 195 209 L 152 209 Z M 152 167"/></clipPath><clipPath id="e"><path d="M 101.117188 124.507812 L 225.835938 76.886719 L 273.457031 201.605469 L 148.738281 249.226562 Z M 101.117188 124.507812"/></clipPath><clipPath id="f"><path d="M 101.117188 124.507812 L 225.835938 76.886719 L 273.457031 201.605469 L 148.738281 249.226562 Z M 101.117188 124.507812"/></clipPath><clipPath id="g"><path d="M 171 122 L 182 122 L 182 184 L 171 184 Z M 171 122"/></clipPath><clipPath id="h"><path d="M 101.117188 124.507812 L 225.835938 76.886719 L 273.457031 201.605469 L 148.738281 249.226562 Z M 101.117188 124.507812"/></clipPath><clipPath id="i"><path d="M 101.117188 124.507812 L 225.835938 76.886719 L 273.457031 201.605469 L 148.738281 249.226562 Z M 101.117188 124.507812"/></clipPath><clipPath id="j"><path d="M 164 183 L 227 183 L 227 190 L 164 190 Z M 164 183"/></clipPath><clipPath id="k"><path d="M 101.117188 124.507812 L 225.835938 76.886719 L 273.457031 201.605469 L 148.738281 249.226562 Z M 101.117188 124.507812"/></clipPath><clipPath id="l"><path d="M 101.117188 124.507812 L 225.835938 76.886719 L 273.457031 201.605469 L 148.738281 249.226562 Z M 101.117188 124.507812"/></clipPath><clipPath id="m"><path d="M 163 115 L 194 115 L 194 146 L 163 146 Z M 163 115"/></clipPath><clipPath id="n"><path d="M 101.117188 124.507812 L 225.835938 76.886719 L 273.457031 201.605469 L 148.738281 249.226562 Z M 101.117188 124.507812"/></clipPath><clipPath id="o"><path d="M 101.117188 124.507812 L 225.835938 76.886719 L 273.457031 201.605469 L 148.738281 249.226562 Z M 101.117188 124.507812"/></clipPath><clipPath id="p"><path d="M 209 169 L 240 169 L 240 200 L 209 200 Z M 209 169"/></clipPath><clipPath id="q"><path d="M 101.117188 124.507812 L 225.835938 76.886719 L 273.457031 201.605469 L 148.738281 249.226562 Z M 101.117188 124.507812"/></clipPath><clipPath id="r"><path d="M 101.117188 124.507812 L 225.835938 76.886719 L 273.457031 201.605469 L 148.738281 249.226562 Z M 101.117188 124.507812"/></clipPath></defs><path fill="#FFF" d="M-37.5 -37.5H412.5V412.5H-37.5z"/><path fill="#FFF" d="M-37.5 -37.5H412.5V412.5H-37.5z"/><path fill="#2C2C2C" d="M-37.5 -37.5H412.5V412.5H-37.5z"/><g clip-path="url(#a)"><g clip-path="url(#b)"><g clip-path="url(#c)"><path fill="#6CE200" d="M 239.289062 174.199219 C 234.546875 167.601562 225.941406 165.011719 218.359375 167.90625 C 216.917969 168.457031 215.546875 169.199219 214.28125 170.105469 C 210.394531 172.898438 207.828125 177.039062 207.054688 181.765625 C 206.996094 182.132812 206.949219 182.5 206.914062 182.871094 L 196.832031 183.460938 C 196.175781 180.222656 194.84375 177.128906 192.855469 174.363281 C 189.191406 169.265625 183.765625 165.988281 177.890625 164.925781 L 179.730469 148.324219 C 181.527344 148.222656 183.339844 147.847656 185.09375 147.179688 C 186.53125 146.628906 187.902344 145.890625 189.167969 144.980469 C 193.054688 142.191406 195.621094 138.050781 196.390625 133.328125 C 197.164062 128.601562 196.050781 123.863281 193.261719 119.972656 C 188.515625 113.378906 179.910156 110.789062 172.324219 113.6875 C 170.882812 114.238281 169.511719 114.976562 168.25 115.882812 C 160.226562 121.652344 158.394531 132.867188 164.160156 140.894531 C 166.644531 144.355469 170.195312 146.710938 174.105469 147.746094 L 172.242188 164.589844 C 169.910156 164.738281 167.574219 165.226562 165.308594 166.09375 C 163.414062 166.816406 161.613281 167.785156 159.949219 168.980469 C 154.835938 172.65625 151.460938 178.109375 150.445312 184.320312 C 149.429688 190.539062 150.890625 196.777344 154.570312 201.890625 C 160.808594 210.570312 172.132812 213.976562 182.113281 210.164062 C 184.007812 209.441406 185.8125 208.46875 187.476562 207.273438 C 192.585938 203.597656 195.964844 198.152344 196.984375 191.933594 C 197.136719 190.984375 197.226562 190.039062 197.265625 189.09375 L 207.234375 188.511719 C 207.753906 190.859375 208.746094 193.105469 210.191406 195.117188 C 214.933594 201.714844 223.542969 204.296875 231.125 201.402344 C 232.5625 200.851562 233.933594 200.113281 235.199219 199.207031 C 239.085938 196.414062 241.652344 192.269531 242.421875 187.550781 C 243.195312 182.824219 242.082031 178.085938 239.289062 174.199219"/></g></g></g><g clip-path="url(#d)"><g clip-path="url(#e)"><g clip-path="url(#f)"><path fill="#6CE200" d="M 190.5625 176.015625 C 197.253906 185.320312 195.128906 198.289062 185.824219 204.976562 C 176.519531 211.667969 163.550781 209.546875 156.863281 200.238281 C 150.171875 190.933594 152.296875 177.96875 161.601562 171.277344 C 170.90625 164.585938 183.871094 166.710938 190.5625 176.015625"/></g></g></g><g clip-path="url(#g)"><g clip-path="url(#h)"><g clip-path="url(#i)"><path fill="#6CE200" d="M 174.53125 182.394531 L 181.003906 123.976562 C 181.085938 123.203125 180.527344 122.503906 179.753906 122.414062 C 178.976562 122.332031 178.277344 122.890625 178.191406 123.667969 L 171.726562 182.082031 C 171.640625 182.859375 172.195312 183.554688 172.972656 183.644531 C 173.75 183.730469 174.449219 183.171875 174.53125 182.394531"/></g></g></g><g clip-path="url(#j)"><g clip-path="url(#k)"><g clip-path="url(#l)"><path fill="#6CE200" d="M 166.148438 189.503906 L 224.824219 186.0625 C 225.601562 186.019531 226.199219 185.351562 226.148438 184.574219 C 226.105469 183.792969 225.4375 183.199219 224.65625 183.242188 L 165.984375 186.683594 C 165.203125 186.726562 164.609375 187.394531 164.652344 188.175781 C 164.699219 188.953125 165.371094 189.546875 166.148438 189.503906"/></g></g></g><g clip-path="url(#m)"><g clip-path="url(#n)"><g clip-path="url(#o)"><path fill="#6CE200" d="M 190.964844 121.625 C 195.828125 128.394531 194.289062 137.824219 187.519531 142.6875 C 180.75 147.554688 171.316406 146.011719 166.453125 139.242188 C 161.589844 132.476562 163.128906 123.046875 169.898438 118.179688 C 176.667969 113.3125 186.097656 114.855469 190.964844 121.625"/></g></g></g><g clip-path="url(#p)"><g clip-path="url(#q)"><g clip-path="url(#r)"><path fill="#6CE200" d="M 236.996094 175.847656 C 241.863281 182.617188 240.320312 192.046875 233.550781 196.910156 C 226.78125 201.777344 217.351562 200.234375 212.484375 193.464844 C 207.621094 186.699219 209.164062 177.265625 215.933594 172.398438 C 222.699219 167.53125 232.128906 169.078125 236.996094 175.847656"/></g></g></g><g fill="#FFF"><g><g><path d="M 15.296875 -7.296875 L 5.703125 -7.296875 L 3.40625 0 L 0.34375 0 L 7.84375 -22.5 C 7.976562 -23.039062 8.347656 -23.3125 8.953125 -23.3125 L 12.0625 -23.3125 C 12.664062 -23.3125 13.035156 -23.039062 13.171875 -22.5 L 20.671875 0 L 17.59375 0 Z M 14.484375 -9.859375 L 11.546875 -19.125 C 11.347656 -19.707031 11.160156 -20.335938 10.984375 -21.015625 L 10.03125 -21.015625 L 9.453125 -19.125 L 6.515625 -9.859375 Z M 14.484375 -9.859375" transform="translate(151.336 263.036)"/></g></g></g><g fill="#FFF"><g><g><path d="M 5.90625 0 L 2.9375 0 L 2.9375 -23.3125 L 5.90625 -23.3125 Z M 5.90625 0" transform="translate(172.35 263.036)"/></g></g></g><g fill="#FFF"><g><g><path d="M 8.546875 -10.9375 L 5.671875 -10.9375 C 5.804688 -10.082031 5.875 -9.265625 5.875 -8.484375 L 5.875 0 L 2.9375 0 L 2.9375 -23.3125 L 5.875 -23.3125 L 5.875 -16.015625 C 5.875 -15.109375 5.804688 -14.21875 5.671875 -13.34375 L 8.515625 -13.34375 L 15.609375 -23.3125 L 18.84375 -23.3125 L 12.0625 -13.640625 C 11.789062 -13.242188 11.363281 -12.75 10.78125 -12.15625 L 10.78125 -12.09375 C 11.40625 -11.488281 11.890625 -10.945312 12.234375 -10.46875 L 19.328125 0 L 15.984375 0 Z M 8.546875 -10.9375" transform="translate(181.202 263.036)"/></g></g></g><g fill="#FFF"><g><g><path d="M 19.734375 -23.3125 L 19.734375 -8.921875 C 19.734375 -5.515625 19.097656 -3.101562 17.828125 -1.6875 C 16.566406 -0.269531 14.421875 0.4375 11.390625 0.4375 C 8.234375 0.4375 6.003906 -0.269531 4.703125 -1.6875 C 3.410156 -3.101562 2.765625 -5.515625 2.765625 -8.921875 L 2.765625 -23.3125 L 5.75 -23.3125 L 5.75 -8.921875 C 5.75 -6.421875 6.148438 -4.679688 6.953125 -3.703125 C 7.765625 -2.722656 9.195312 -2.234375 11.25 -2.234375 C 13.28125 -2.234375 14.703125 -2.722656 15.515625 -3.703125 C 16.335938 -4.679688 16.75 -6.421875 16.75 -8.921875 L 16.75 -23.3125 Z M 19.734375 -23.3125" transform="translate(201.169 263.036)"/></g></g></g></svg>